<svg width="320" height="100" viewBox="0 0 320 100" fill="none" xmlns="http://www.w3.org/2000/svg">
<path d="M169.486 70.5H162.65L162.24 67.2461C161.237 68.4492 159.998 69.388 158.521 70.0625C157.044 70.7188 155.422 71.0469 153.654 71.0469C151.74 71.0469 150.035 70.6823 148.541 69.9531C147.046 69.2057 145.87 68.1849 145.013 66.8906C144.156 65.5781 143.728 64.0924 143.728 62.4336C143.728 60.6836 144.193 59.1432 145.123 57.8125C146.052 56.4818 147.328 55.4427 148.951 54.6953C150.591 53.9297 152.451 53.5469 154.529 53.5469C155.75 53.5469 156.972 53.6836 158.193 53.957C159.432 54.2305 160.581 54.6133 161.638 55.1055V54.3945C161.638 53.3008 161.328 52.362 160.708 51.5781C160.107 50.776 159.268 50.1562 158.193 49.7188C157.136 49.2812 155.951 49.0625 154.638 49.0625C153.38 49.0625 152.132 49.263 150.892 49.6641C149.671 50.0651 148.541 50.6667 147.501 51.4688L145.369 45.4805C147.21 44.5326 149.069 43.8216 150.947 43.3477C152.843 42.8555 154.675 42.6094 156.443 42.6094C159.104 42.6094 161.41 43.138 163.361 44.1953C165.311 45.2344 166.815 46.7109 167.873 48.625C168.948 50.5208 169.486 52.7721 169.486 55.3789V70.5ZM155.376 65.0039C156.416 65.0039 157.409 64.776 158.357 64.3203C159.305 63.8646 160.07 63.2448 160.654 62.4609C161.255 61.6771 161.574 60.8112 161.611 59.8633V59.6719C160.809 59.125 159.916 58.7057 158.931 58.4141C157.965 58.1042 156.981 57.9492 155.978 57.9492C154.483 57.9492 153.262 58.2773 152.314 58.9336C151.366 59.5898 150.892 60.4375 150.892 61.4766C150.892 62.151 151.083 62.7617 151.466 63.3086C151.867 63.8372 152.405 64.2565 153.08 64.5664C153.754 64.8581 154.52 65.0039 155.376 65.0039Z" fill="white"/>
<path d="M183.458 70.5H175.611V29.4844H183.458V54.6953L186.138 51.4688L194.013 43.1562H203.83L192.263 55.3242L205.197 70.5H195.052L186.876 60.2461L183.458 63.3633V70.5Z" fill="white"/>
<path d="M233.826 67.4375C230.435 69.8438 226.725 71.0469 222.697 71.0469C219.707 71.0469 217.018 70.4089 214.63 69.1328C212.261 67.8385 210.383 66.0885 208.998 63.8828C207.63 61.6771 206.947 59.1888 206.947 56.418C206.947 53.7747 207.567 51.4141 208.806 49.3359C210.064 47.2578 211.768 45.6172 213.919 44.4141C216.07 43.2109 218.513 42.6094 221.248 42.6094C224.073 42.6094 226.561 43.2747 228.712 44.6055C230.863 45.918 232.541 47.7591 233.744 50.1289C234.947 52.4805 235.548 55.2057 235.548 58.3047V59.1797H215.396C215.724 60.2552 216.262 61.2031 217.009 62.0234C217.757 62.8255 218.686 63.4635 219.798 63.9375C220.91 64.4115 222.186 64.6484 223.626 64.6484C226.416 64.6484 229.013 63.7461 231.419 61.9414L233.826 67.4375ZM215.041 55.1875H228.302C228.156 54.0026 227.783 52.9635 227.181 52.0703C226.598 51.1589 225.823 50.4479 224.857 49.9375C223.909 49.4271 222.843 49.1719 221.658 49.1719C220.455 49.1719 219.379 49.4362 218.431 49.9648C217.501 50.4935 216.745 51.2044 216.162 52.0977C215.578 52.9909 215.205 54.0208 215.041 55.1875Z" fill="white"/>
<path d="M250.587 70.5H242.74V50.1562H237.955V43.1562H242.74V38.8906C242.74 36.9219 243.205 35.1719 244.134 33.6406C245.064 32.0911 246.34 30.8789 247.962 30.0039C249.603 29.1107 251.462 28.6641 253.541 28.6641C254.853 28.6641 256.193 28.8555 257.56 29.2383C258.927 29.6029 260.276 30.1862 261.607 30.9883L258.626 37.0859C258.043 36.612 257.423 36.2656 256.767 36.0469C256.129 35.8099 255.491 35.6914 254.853 35.6914C253.65 35.6914 252.638 36.1107 251.818 36.9492C250.998 37.7878 250.587 38.9453 250.587 40.4219V43.1562H258.763V50.1562H250.587V70.5Z" fill="white"/>
<path d="M277.521 84.1719H269.154L274.841 70.4727L261.033 43.1562H269.892L278.56 61.5312L286.162 43.1562H294.501L277.521 84.1719Z" fill="white"/>
<path d="M114.962 69.8687V39.4934C114.962 30.6569 122.126 23.4934 130.962 23.4934H144.962V31.8101H132.485C128.067 31.8101 124.485 35.3918 124.485 39.8101V42.3527H138.172V50.7003H124.485V69.8687H114.962Z" fill="white"/>
<path fill-rule="evenodd" clip-rule="evenodd" d="M45 95C69.8528 95 90 74.8528 90 50C90 25.1472 69.8528 5 45 5C20.1472 5 0 25.1472 0 50C0 74.8528 20.1472 95 45 95ZM52.9805 21.9389C54.0041 21.7185 55.1799 21.8748 56.2494 22.3735C57.3188 22.8722 58.1944 23.6725 58.6835 24.5982L74.3303 54.2246C74.7962 55.1437 74.8426 56.1055 74.4597 56.9027C74.0767 57.7 73.295 58.2689 72.2829 58.487C71.2708 58.705 70.1093 58.5548 69.0485 58.0687C67.9878 57.5825 67.1126 56.7993 66.6116 55.8877L52.8085 29.7524L23.9153 35.9781C22.8949 36.1802 21.7324 36.0133 20.6781 35.5132C19.6239 35.0131 18.7622 34.2199 18.2787 33.3044C17.7952 32.3889 17.7285 31.4244 18.0931 30.6186C18.4577 29.8127 19.2243 29.2301 20.2278 28.9962L52.9805 21.9389ZM48.6882 38.5884C47.797 38.1728 46.8171 38.0425 45.9641 38.2262L18.6703 44.1073C17.834 44.3023 17.1951 44.7878 16.8913 45.4593C16.5875 46.1308 16.6431 46.9346 17.046 47.6975C17.4489 48.4604 18.167 49.1214 19.0455 49.5381C19.9241 49.9549 20.8928 50.094 21.7431 49.9256L45.8209 44.7375L57.3234 66.5169C57.7409 67.2766 58.4702 67.9292 59.3542 68.3344C60.2382 68.7395 61.2061 68.8647 62.0495 68.683C62.8929 68.5012 63.5444 68.0271 63.8635 67.3628C64.1826 66.6984 64.1439 65.8969 63.7557 65.131L50.7167 40.4424C50.3091 39.6709 49.5795 39.004 48.6882 38.5884ZM42.1486 52.6126C41.4356 52.2802 40.6517 52.1759 39.9694 52.3229L18.1343 57.0277C17.4652 57.1837 16.9542 57.5721 16.7111 58.1093C16.4681 58.6465 16.5125 59.2895 16.8348 59.8999C17.1572 60.5102 17.7316 61.039 18.4345 61.3724C19.1373 61.7058 19.9123 61.8171 20.5925 61.6823L39.8547 57.5319L49.0568 74.9554C49.3908 75.5631 49.9742 76.0853 50.6814 76.4094C51.3886 76.7335 52.1629 76.8336 52.8376 76.6883C53.5124 76.5429 54.0335 76.1636 54.2888 75.6321C54.5441 75.1006 54.5131 74.4594 54.2026 73.8467L43.7714 54.0958C43.4453 53.4786 42.8616 52.9451 42.1486 52.6126Z" fill="white"/>
<circle cx="303.126" cy="35.5037" r="6.5" stroke="white" stroke-width="2"/>
<path d="M305.976 32.9497V39.4952H304.493L302.128 36.0562H302.09V39.4952H300.313V32.9497H301.821L304.148 36.3758H304.199V32.9497H305.976ZM302.282 32.3361H301.412C301.412 31.8758 301.518 31.5339 301.729 31.3101C301.94 31.0843 302.196 30.9703 302.499 30.9682C302.665 30.9682 302.806 30.9948 302.921 31.0481C303.038 31.0992 303.14 31.1599 303.228 31.2302C303.315 31.3006 303.394 31.3624 303.464 31.4156C303.537 31.4668 303.611 31.4923 303.688 31.4923C303.812 31.4902 303.899 31.4454 303.95 31.3581C304.003 31.2707 304.031 31.1493 304.033 30.9937H304.89C304.883 31.4454 304.775 31.7874 304.564 32.0197C304.355 32.2519 304.101 32.3702 303.803 32.3744C303.637 32.3766 303.495 32.351 303.378 32.2977C303.263 32.2445 303.163 32.1837 303.078 32.1155C302.994 32.0452 302.917 31.9834 302.844 31.9302C302.772 31.8769 302.695 31.8503 302.614 31.8503C302.512 31.8503 302.431 31.8918 302.371 31.9749C302.312 32.0559 302.282 32.1763 302.282 32.3361Z" fill="white"/>
</svg>
